HIERARCHY
ROOT hip
{
  OFFSET 0 0 0
  CHANNELS 6 Xposition Yposition Zposition Zrotation Yrotation Xrotation
  JOINT abdomen
  {
    OFFSET 0 20.6881 -0.73152
    CHANNELS 3 Zrotation Xrotation Yrotation
    JOINT chest
    {
      OFFSET 0 11.7043 -0.48768
      CHANNELS 3 Zrotation Xrotation Yrotation
      JOINT neck
      {
        OFFSET 0 22.1894 -2.19456
        CHANNELS 3 Zrotation Xrotation Yrotation
        JOINT head
        {
          OFFSET -0.24384 7.07133 1.2192
          CHANNELS 3 Zrotation Xrotation Yrotation
          JOINT leftEye
          {
            OFFSET 4.14528 8.04674 8.04672
            CHANNELS 3 Zrotation Xrotation Yrotation
            End Site
            {
              OFFSET 1 0 0
            }
          }
          JOINT rightEye
          {
            OFFSET -3.6576 8.04674 8.04672
            CHANNELS 3 Zrotation Xrotation Yrotation
            End Site
            {
              OFFSET 1 0 0
            }
          }
        }
      }
      JOINT rCollar
      {
        OFFSET -2.68224 19.2634 -4.8768
        CHANNELS 3 Zrotation Xrotation Yrotation
        JOINT rShldr
        {
          OFFSET -8.77824 -1.95073 1.46304
          CHANNELS 3 Zrotation Xrotation Yrotation
          JOINT rForeArm
          {
            OFFSET -28.1742 -1.7115 0.48768
            CHANNELS 3 Zrotation Xrotation Yrotation
            JOINT rHand
            {
              OFFSET -22.5879 0.773209 7.07136
              CHANNELS 3 Zrotation Xrotation Yrotation
              JOINT rThumb1
              {
                OFFSET -1.2192 -0.487915 3.41376
                CHANNELS 3 Zrotation Xrotation Yrotation
                JOINT rThumb2
                {
                  OFFSET -3.37035 -0.52449 3.41376
                  CHANNELS 3 Zrotation Xrotation Yrotation
                  End Site
                  {
                    OFFSET -1.78271 -1.18214 1.43049
                  }
                }
              }
              JOINT rIndex1
              {
                OFFSET -7.75947 0.938293 5.60832
                CHANNELS 3 Zrotation Xrotation Yrotation
                JOINT rIndex2
                {
                  OFFSET -2.54057 -0.884171 1.56538
                  CHANNELS 3 Zrotation Xrotation Yrotation
                  End Site
                  {
                    OFFSET -1.62519 -0.234802 1.16502
                  }
                }
              }
              JOINT rMid1
              {
                OFFSET -8.24714 1.18213 3.41376
                CHANNELS 3 Zrotation Xrotation Yrotation
                JOINT rMid2
                {
                  OFFSET -3.10165 -0.590103 1.0647
                  CHANNELS 3 Zrotation Xrotation Yrotation
                  End Site
                  {
                    OFFSET -2.48547 -0.328903 0.83742
                  }
                }
              }
              JOINT rRing1
              {
                OFFSET -8.82822 0.546677 1.51678
                CHANNELS 3 Zrotation Xrotation Yrotation
                JOINT rRing2
                {
                  OFFSET -2.60934 -0.819778 -0.0198488
                  CHANNELS 3 Zrotation Xrotation Yrotation
                  End Site
                  {
                    OFFSET -2.33842 -0.294052 0.168128
                  }
                }
              }
              JOINT rPinky1
              {
                OFFSET -8.27202 -0.0477905 -0.4584
                CHANNELS 3 Zrotation Xrotation Yrotation
                JOINT rPinky2
                {
                  OFFSET -1.82734 -0.647385 -0.700984
                  CHANNELS 3 Zrotation Xrotation Yrotation
                  End Site
                  {
                    OFFSET -1.69225 -0.51767 -0.607171
                  }
                }
              }
            }
          }
        }
      }
      JOINT lCollar
      {
        OFFSET 2.68224 19.2634 -4.8768
        CHANNELS 3 Zrotation Xrotation Yrotation
        JOINT lShldr
        {
          OFFSET 8.77824 -1.95073 1.46304
          CHANNELS 3 Zrotation Xrotation Yrotation
          JOINT lForeArm
          {
            OFFSET 28.1742 -1.7115 0.48768
            CHANNELS 3 Zrotation Xrotation Yrotation
            JOINT lHand
            {
              OFFSET 22.5879 0.773209 7.07136
              CHANNELS 3 Zrotation Xrotation Yrotation
              JOINT lThumb1
              {
                OFFSET 1.2192 -0.487915 3.41376
                CHANNELS 3 Zrotation Xrotation Yrotation
                JOINT lThumb2
                {
                  OFFSET 3.37035 -0.52449 3.41376
                  CHANNELS 3 Zrotation Xrotation Yrotation
                  End Site
                  {
                    OFFSET 1.78271 -1.18214 1.43049
                  }
                }
              }
              JOINT lIndex1
              {
                OFFSET 7.75947 0.938293 5.60832
                CHANNELS 3 Zrotation Xrotation Yrotation
                JOINT lIndex2
                {
                  OFFSET 2.54057 -0.884171 1.56538
                  CHANNELS 3 Zrotation Xrotation Yrotation
                  End Site
                  {
                    OFFSET 1.62519 -0.234802 1.16502
                  }
                }
              }
              JOINT lMid1
              {
                OFFSET 8.24714 1.18213 3.41376
                CHANNELS 3 Zrotation Xrotation Yrotation
                JOINT lMid2
                {
                  OFFSET 3.10165 -0.590103 1.0647
                  CHANNELS 3 Zrotation Xrotation Yrotation
                  End Site
                  {
                    OFFSET 2.48547 -0.328903 0.83742
                  }
                }
              }
              JOINT lRing1
              {
                OFFSET 8.82822 0.546677 1.51678
                CHANNELS 3 Zrotation Xrotation Yrotation
                JOINT lRing2
                {
                  OFFSET 2.60934 -0.819778 -0.0198488
                  CHANNELS 3 Zrotation Xrotation Yrotation
                  End Site
                  {
                    OFFSET 2.33842 -0.294052 0.168128
                  }
                }
              }
              JOINT lPinky1
              {
                OFFSET 8.27202 -0.0477905 -0.4584
                CHANNELS 3 Zrotation Xrotation Yrotation
                JOINT lPinky2
                {
                  OFFSET 1.82734 -0.647385 -0.700984
                  CHANNELS 3 Zrotation Xrotation Yrotation
                  End Site
                  {
                    OFFSET 1.69225 -0.51767 -0.607171
                  }
                }
              }
            }
          }
        }
      }
    }
  }
  JOINT rButtock
  {
    OFFSET -8.77824 4.35084 1.2192
    CHANNELS 3 Zrotation Xrotation Yrotation
    JOINT rThigh
    {
      OFFSET 0 -1.70687 -2.19456
      CHANNELS 3 Zrotation Xrotation Yrotation
      JOINT rShin
      {
        OFFSET 0 -36.8199 0.73152
        CHANNELS 3 Zrotation Xrotation Yrotation
        JOINT rFoot
        {
          OFFSET 0.73152 -45.1104 -5.12064
          CHANNELS 3 Zrotation Xrotation Yrotation
          End Site
          {
            OFFSET -1.1221 -3.69964 12.103
          }
        }
      }
    }
  }
  JOINT lButtock
  {
    OFFSET 8.77824 4.35084 1.2192
    CHANNELS 3 Zrotation Xrotation Yrotation
    JOINT lThigh
    {
      OFFSET 0 -1.70687 -2.19456
      CHANNELS 3 Zrotation Xrotation Yrotation
      JOINT lShin
      {
        OFFSET 0 -36.8199 0.73152
        CHANNELS 3 Zrotation Xrotation Yrotation
        JOINT lFoot
        {
          OFFSET -0.73152 -45.1104 -5.12064
          CHANNELS 3 Zrotation Xrotation Yrotation
          End Site
          {
            OFFSET 1.1221 -3.69964 12.103
          }
        }
      }
    }
  }
}
MOTION
Frames:	7
Frame Time:	0.00833333
-145.028 73.3004 -16.3666 4.1156 11.1115 17.2346 -12.0621 31.7361 9.54638 0.0744575 -1.57684 1.72229 -14.3837 5.8461 -3.87498 34.8329 -54.3633 12.9843 -0.0 0.0 0.0 -0.0 0.0 0.0 3.14889e-13 9.54147e-15 -2.8456e-13 64.2448 26.7261 29.1233 -21.2806 -14.713 41.8874 -0.992228 -27.0739 -4.11954 -1.79057e-10 -1.55529e-11 -1.06008e-11 -3.06735e-10 -2.93184e-11 -2.40195e-11 -1.79055e-10 -1.55537e-11 -1.06103e-11 7.73091 5.47488 0.417314 -1.79059e-10 -1.55551e-11 -1.05976e-11 2.90554 0.965183 0.102902 -1.79049e-10 -1.55562e-11 -1.06032e-11 10.2786 0.731801 0.0259123 -1.79073e-10 -1.55458e-11 -1.06008e-11 2.22167 -0.733487 -0.20892 3.14882e-13 9.54166e-15 -2.84709e-13 -58.3068 -2.32356 -29.4594 17.8922 -10.5712 -33.7789 0.227074 -13.448 1.92585 1.07133e-09 2.39829e-09 -1.71534e-09 1.87466e-09 4.16551e-09 -2.96109e-09 1.07133e-09 2.39829e-09 -1.71532e-09 -7.73091 5.47488 -0.417314 1.07133e-09 2.39829e-09 -1.71534e-09 -2.90554 0.965183 -0.102902 1.07133e-09 2.39829e-09 -1.71534e-09 -10.2786 0.731801 -0.0259123 1.07134e-09 2.39829e-09 -1.71534e-09 -2.22167 -0.733487 0.20892 -2.03217e-16 0.0 -3.88251e-19 -0.984893 -17.8182 -8.0927 -0.739809 54.6637 1.37212 2.78102 -26.1031 6.01922 2.03217e-16 0.0 3.88251e-19 38.4773 -53.5266 40.2075 156.477 87.1985 -156.865 0.673706 -1.38414 1.55579
-144.521 73.7927 -14.0095 4.0496 11.0992 17.7951 -12.4816 31.0291 10.4285 -0.440307 -1.6101 1.93511 -14.4978 6.34403 -4.27694 33.8766 -53.5066 11.1018 -0.0 0.0 0.0 -0.0 0.0 0.0 2.02986e-13 6.65875e-14 -2.67793e-13 64.9344 27.4966 27.8808 -21.4069 -14.8896 42.2229 -0.863006 -25.6465 -3.86173 4.31135e-10 -7.78029e-10 3.86996e-10 7.39135e-10 -1.34771e-09 6.72807e-10 4.31137e-10 -7.78031e-10 3.86988e-10 7.73091 5.47488 0.417314 4.31134e-10 -7.78032e-10 3.86997e-10 2.90554 0.965183 0.102902 4.31144e-10 -7.78033e-10 3.86991e-10 10.2786 0.731801 0.0259123 4.31121e-10 -7.78024e-10 3.86994e-10 2.22167 -0.733487 -0.20892 2.02966e-13 6.6598e-14 -2.67972e-13 -58.4213 -2.20123 -27.504 18.9077 -11.7275 -35.9975 0.347615 -17.296 2.4951 1.72327e-09 2.4456e-09 -2.23171e-09 3.00991e-09 4.2436e-09 -3.83523e-09 1.72327e-09 2.44559e-09 -2.23169e-09 -7.73091 5.47488 -0.417314 1.72327e-09 2.44559e-09 -2.23171e-09 -2.90554 0.965183 -0.102902 1.72327e-09 2.44559e-09 -2.2317e-09 -10.2786 0.731801 -0.0259123 1.72328e-09 2.4456e-09 -2.23171e-09 -2.22167 -0.733487 0.20892 -2.03217e-16 0.0 -3.88251e-19 -1.25727 -15.0518 -8.2583 -0.603575 51.3109 1.20742 3.62007 -24.1024 8.11661 2.03217e-16 0.0 3.88251e-19 39.3368 -55.9229 40.4698 88.4294 88.9285 -88.7815 0.477887 -2.20582 0.807224
-143.99 74.079 -11.6631 4.0946 11.1585 18.1798 -12.9963 30.167 11.1559 -0.917208 -1.64673 2.10558 -14.5304 6.79584 -4.65116 32.7305 -52.3295 9.0957 -0.0 0.0 0.0 -0.0 0.0 0.0 -1.10103e-14 1.37945e-13 -1.75719e-13 66.4351 27.6951 26.1373 -21.5117 -15.0376 42.5043 -0.636377 -22.603 -3.34093 1.09935e-09 -1.58046e-09 1.23688e-09 1.87643e-09 -2.72847e-09 2.15414e-09 1.09936e-09 -1.58047e-09 1.23687e-09 7.73091 5.47488 0.417314 1.09935e-09 -1.58047e-09 1.23687e-09 2.90554 0.965183 0.102902 1.09936e-09 -1.58047e-09 1.23687e-09 10.2786 0.731801 0.0259123 1.09935e-09 -1.58046e-09 1.23687e-09 2.22167 -0.733487 -0.20892 -1.10588e-14 1.37968e-13 -1.75931e-13 -58.751 -2.10054 -25.1563 19.9518 -12.9841 -38.4858 0.568563 -21.8097 3.20342 2.52384e-09 2.04725e-09 -2.58823e-09 4.40312e-09 3.54609e-09 -4.42429e-09 2.52384e-09 2.04725e-09 -2.58822e-09 -7.73091 5.47488 -0.417314 2.52384e-09 2.04724e-09 -2.58823e-09 -2.90554 0.965183 -0.102902 2.52384e-09 2.04724e-09 -2.58823e-09 -10.2786 0.731801 -0.0259123 2.52385e-09 2.04725e-09 -2.58823e-09 -2.22167 -0.733487 0.20892 -2.03217e-16 0.0 -3.88251e-19 -1.62979 -12.2837 -8.4938 -0.493103 47.7317 1.04997 4.22703 -21.4895 10.2229 2.03217e-16 0.0 3.88251e-19 39.385 -58.1224 39.9729 17.3781 86.5901 -17.6823 0.258287 -3.08184 0.00342889
-143.585 74.7059 -9.05054 4.0815 11.1815 18.436 -13.5417 29.2637 11.7974 -1.33881 -1.66279 2.25609 -14.5515 7.24816 -5.03183 31.7697 -51.0979 7.18687 -0.0 0.0 0.0 -0.0 0.0 0.0 -2.22669e-13 1.99165e-13 -7.08768e-14 68.2105 27.6744 24.1399 -21.6302 -15.2088 42.8148 -0.453017 -19.2336 -2.80187 1.61916e-09 -2.19986e-09 2.08351e-09 2.75756e-09 -3.79121e-09 3.62798e-09 1.61917e-09 -2.19986e-09 2.08351e-09 7.73091 5.47488 0.417314 1.61916e-09 -2.19986e-09 2.08351e-09 2.90554 0.965183 0.102902 1.61917e-09 -2.19986e-09 2.0835e-09 10.2786 0.731801 0.0259123 1.61916e-09 -2.19986e-09 2.0835e-09 2.22167 -0.733487 -0.20892 -2.22749e-13 1.99199e-13 -7.11144e-14 -59.2968 -2.15775 -22.6059 20.963 -14.2886 -41.0606 0.892716 -26.2875 3.96599 3.15431e-09 1.48276e-09 -2.76323e-09 5.50058e-09 2.56077e-09 -4.70288e-09 3.15431e-09 1.48277e-09 -2.76323e-09 -7.73091 5.47488 -0.417314 3.15431e-09 1.48277e-09 -2.76324e-09 -2.90554 0.965183 -0.102902 3.15431e-09 1.48276e-09 -2.76323e-09 -10.2786 0.731801 -0.0259123 3.15431e-09 1.48277e-09 -2.76324e-09 -2.22167 -0.733487 0.20892 -2.03217e-16 0.0 -3.88251e-19 -1.9016 -9.50835 -8.59518 -0.404696 44.0221 0.905972 4.44464 -18.4223 12.0474 2.03217e-16 0.0 3.88251e-19 38.8051 -60.1877 38.7716 7.98623 83.0747 -8.23459 0.0344343 -3.77961 -0.828293
-143.166 75.2578 -6.43034 4.1821 11.0351 18.865 -14.0553 28.4311 12.4219 -1.68789 -1.63437 2.40904 -14.6285 7.7473 -5.45353 31.2845 -50.0924 5.52605 -0.0 0.0 0.0 -0.0 0.0 0.0 -3.27557e-13 2.25801e-13 -1.58034e-14 69.771 27.8173 22.12 -21.7949 -15.4524 43.2389 -0.360724 -16.8351 -2.43729 1.78413e-09 -2.41321e-09 2.47138e-09 3.03491e-09 -4.15553e-09 4.30233e-09 1.78413e-09 -2.41321e-09 2.47138e-09 7.73091 5.47488 0.417314 1.78413e-09 -2.41321e-09 2.47138e-09 2.90554 0.965183 0.102902 1.78414e-09 -2.41321e-09 2.47137e-09 10.2786 0.731801 0.0259123 1.78413e-09 -2.41321e-09 2.47137e-09 2.22167 -0.733487 -0.20892 -3.27659e-13 2.25837e-13 -1.60519e-14 -60.0324 -2.52114 -20.0422 21.9052 -15.6156 -43.534 1.25076 -30.0323 4.66025 3.29595e-09 1.03167e-09 -2.73506e-09 5.74853e-09 1.77544e-09 -4.64563e-09 3.29595e-09 1.03167e-09 -2.73506e-09 -7.73091 5.47488 -0.417314 3.29595e-09 1.03167e-09 -2.73506e-09 -2.90554 0.965183 -0.102902 3.29595e-09 1.03167e-09 -2.73506e-09 -10.2786 0.731801 -0.0259123 3.29595e-09 1.03167e-09 -2.73507e-09 -2.22167 -0.733487 0.20892 -2.03217e-16 0.0 -3.88251e-19 -1.91167 -6.71469 -8.36524 -0.33104 40.2779 0.778525 4.20731 -15.0566 13.335 2.03217e-16 0.0 3.88251e-19 37.8136 -62.1708 36.9559 4.86834 79.3687 -5.05687 -0.15904 -4.06674 -1.65953
-142.726 75.6445 -3.88717 4.2624 11.0184 19.3445 -14.5773 27.6648 13.0259 -1.94765 -1.55134 2.56245 -14.7813 8.29363 -5.9355 31.3438 -49.3878 4.11123 -0.0 0.0 0.0 -0.0 0.0 0.0 -2.61156e-13 1.93728e-13 -3.84773e-14 71.1073 28.1668 20.055 -22.0132 -15.7797 43.8159 -0.319848 -15.5887 -2.25142 1.35222e-09 -1.95008e-09 2.10309e-09 2.29657e-09 -3.35595e-09 3.65895e-09 1.35222e-09 -1.95009e-09 2.10309e-09 7.73091 5.47488 0.417314 1.35222e-09 -1.95008e-09 2.10308e-09 2.90554 0.965183 0.102902 1.35223e-09 -1.95008e-09 2.10308e-09 10.2786 0.731801 0.0259123 1.35222e-09 -1.95008e-09 2.10308e-09 2.22167 -0.733487 -0.20892 -2.61268e-13 1.93753e-13 -3.87125e-14 -60.9934 -3.3743 -17.4754 22.8044 -17.0214 -45.9364 1.54429 -32.6677 5.18293 2.67538e-09 7.30166e-10 -2.33015e-09 4.66984e-09 1.25485e-09 -3.96112e-09 2.67538e-09 7.3017e-10 -2.33015e-09 -7.73091 5.47488 -0.417314 2.67539e-09 7.30171e-10 -2.33015e-09 -2.90554 0.965183 -0.102902 2.67538e-09 7.3017e-10 -2.33016e-09 -10.2786 0.731801 -0.0259123 2.67539e-09 7.30172e-10 -2.33016e-09 -2.22167 -0.733487 0.20892 -2.03217e-16 0.0 -3.88251e-19 -1.72686 -3.95989 -7.72394 -0.269215 36.5254 0.663553 3.51099 -11.0919 14.1246 2.03217e-16 0.0 3.88251e-19 36.1009 -64.1104 34.0808 3.27386 75.3904 -3.38775 -0.287408 -3.84874 -2.44793
-142.312 75.9235 -1.35025 4.2059 11.2019 19.7043 -15.1274 26.9172 13.583 -2.13188 -1.42772 2.70703 -14.9704 8.86577 -6.4567 31.7385 -48.8467 2.82928 -0.0 0.0 0.0 -0.0 0.0 0.0 -9.13863e-14 1.21853e-13 -1.01778e-13 72.4483 28.5297 17.8453 -22.2621 -16.1579 44.498 -0.294275 -14.8595 -2.14228 4.95863e-10 -9.99737e-10 1.28022e-09 8.34324e-10 -1.71671e-09 2.2226e-09 4.95864e-10 -9.9974e-10 1.28022e-09 7.73091 5.47488 0.417314 4.95862e-10 -9.99739e-10 1.28022e-09 2.90554 0.965183 0.102902 4.95871e-10 -9.99739e-10 1.28021e-09 10.2786 0.731801 0.0259123 4.95864e-10 -9.99739e-10 1.28022e-09 2.22167 -0.733487 -0.20892 -9.15016e-14 1.21857e-13 -1.01983e-13 -62.0944 -4.61355 -14.8188 23.6457 -18.4673 -48.3669 1.77245 -34.6333 5.58846 1.52539e-09 4.41952e-10 -1.61599e-09 2.66967e-09 7.6063e-10 -2.75777e-09 1.52539e-09 4.41956e-10 -1.61598e-09 -7.73091 5.47488 -0.417314 1.52539e-09 4.41958e-10 -1.61599e-09 -2.90554 0.965183 -0.102902 1.52539e-09 4.41957e-10 -1.61599e-09 -10.2786 0.731801 -0.0259123 1.5254e-09 4.4196e-10 -1.616e-09 -2.22167 -0.733487 0.20892 -2.03217e-16 0.0 -3.88251e-19 -1.47173 -1.21887 -6.7894 -0.219811 32.7132 0.556105 2.46806 -6.56452 14.6018 2.03217e-16 0.0 3.88251e-19 33.3436 -65.8856 29.9101 2.32205 71.08 -2.34471 -0.351092 -3.26106 -3.21881
